<?xml version="1.0" encoding="utf-8"?>
<!-- Generator: Adobe Illustrator 16.0.4, SVG Export Plug-In . SVG Version: 6.00 Build 0)  -->
<!DOCTYPE svg PUBLIC "-//W3C//DTD SVG 1.1//EN" "http://www.w3.org/Graphics/SVG/1.1/DTD/svg11.dtd">
<svg version="1.1" id="Layer_1" xmlns="http://www.w3.org/2000/svg" xmlns:xlink="http://www.w3.org/1999/xlink" x="0px" y="0px"
	 width="600px" height="325px" viewBox="0 0 600 325" enable-background="new 0 0 600 325" xml:space="preserve">
<g id="Layer_3" display="none">
	<rect x="-200" y="-347.014" display="inline" fill="#222222" width="1000" height="1000"/>
</g>
<g id="Layer_6">
	<text transform="matrix(1 0 0 1 341.8506 130.2617)" fill="#E7E7E7" font-family="'EurostileRegular'" font-size="33.2441">Symphony</text>
	<text transform="matrix(1 0 0 1 341.8506 163.1826)" fill="#E7E7E7" font-family="'EurostileRegular'" font-size="24.9331">of</text>
	<text transform="matrix(1 0 0 1 341.8506 200.0742)" fill="#E7E7E7" font-family="'EurostileRegular'" font-size="33.2441">Death</text>
	<line fill="none" stroke="#E7E7E7" stroke-miterlimit="10" x1="302.094" y1="76.999" x2="302.094" y2="232.141"/>
</g>
<g id="Layer_5">
	<g>
		<path fill="#FFFFFF" d="M241.34,198.3c13.538,9.896,5.427,20.954,1.286,29.933c-5.75,12.468-5.485,13.08-18.992,10.394
			c-1.553-0.306-3.671,1.004-5.196,2.058c-3.251,2.26-6.127,5.088-9.448,7.233c-4.314,2.796-5.122,5.772-3.883,11.022
			c1.006,4.3-0.526,9.496-1.961,13.961c-0.853,2.648-8.701,7.06-11.889,7.174l-0.972-4.536l-1.46-0.263l-0.167,5.822
			c-2.236,1.391-6.459,2.152-8.698,1.452c0,0-0.617-4.784-1.016-6.771c-0.788,0.884-2.281,2.281-2.281,2.281l-0.34,6.666
			c-0.33,0.279-4.604,2.517-7.051,0.76c-1.006-0.723-0.445-5.588-0.445-5.588l-1.157,0.752l-0.659,5.263
			c-2.799,1.868-8.198,2.635-10.376,1.161c-0.812-0.557-1.365-6.885-1.365-6.885l-1.128-0.025c0,0-1.038,7.691-3.31,7.874
			c-1.356,0.108-5.767,0.713-8.04-1.589l-0.98-5.12l-1.563-0.452l0.101,4.624c-2.144,1.692-6.186,0.688-7.147-0.558
			c-0.76-0.979-0.655-5.977-0.655-5.977s-1.404-1.053-2.129-1.787c-0.534,1.766-1.119,6.438-1.119,6.438
			c-1.928,2.068-5.472-0.17-8.142-1.76c-0.373-0.221-0.682-4.797-0.682-4.797l-1.192-0.453l-1.536,4.461
			c-3.948,1.109-6.349-3.307-8.603-7.416c-2.721-4.948-3.897-9.553-1.594-14.844c0.477-1.088,1.01-2.422,0.799-3.502
			c-0.761-3.931-18.444-14.021-22.341-12.957c-6.012,1.645-11.293,1.396-14.465-5.177c-2.46-5.094-5.23-10.036-7.803-15.077
			c-3.309-6.49-8.38-9.804-1.584-16.078c2.625-2.422,3.97-10.737,4.418-15.334c0.456-4.651-0.133-15.236-0.133-15.236l1.617-8.786
			l3.103-6.812l5.605-6.812l-0.133-5.923c0,0-2.521-9.204-2.579-9.565c-0.193-0.009,1.349,10.466,1.349,10.466l-0.281,4.378
			c0,0-3.035,3.423-5.605,6.468c-2.727,3.225-4.993,6.099-5.108,6.505c-1.476,6.901-0.878,16.021-1.59,26.639
			c-3.071-9.962-5.383-17.247-6.294-26.179c-2.456-23.973-5.034-48.02-0.693-72.19c2.638-14.671,7.655-26.872,20.667-35.973
			c19.217-13.43,38.47-25.993,62.043-30.448c16.427-3.103,32.682-1.746,47.349,5.176c17.57,8.299,34.863,17.933,50.348,29.559
			c6.767,5.074,10.292,16.14,12.587,25.171c5.177,20.392,5.724,41.391,3.256,62.307c-1.445,12.207-9.149,38.395-9.149,38.395
			c-1.171-10.581-0.957-19.711-2.731-26.544c-0.133-0.405-2.523-3.178-5.385-6.28c-2.695-2.937-5.876-6.224-5.876-6.224
			l-0.469-4.361c0,0,1.092-10.533,0.894-10.513c-0.036,0.361-2.163,9.666-2.163,9.666l0.125,5.924l5.89,6.565l3.393,6.673
			l1.989,8.705c0,0-0.13,10.604,0.521,15.226L241.34,198.3z"/>
		<path fill="#222222" d="M97.727,166.566c-14.439,0.545-24.077,18.651-18.177,31.285c4.576,9.801,21.502,15.635,32.854,11.211
			c4.144-1.617,8.054-3.861,12.261-5.27c7.175-2.404,11.435-7.052,11.234-14.648c-0.266-10.098-7.24-20.49-15.141-21.396
			C115.032,167.094,103.487,166.352,97.727,166.566z M230.356,184.596c1.211-8.287-2.933-15.387-11.862-17.587
			c-7.601-1.873-15.85-1.396-23.816-1.438c-12.981-0.067-18.729,7.599-20.594,19.635c-1.085,6.979,0.635,12.523,7.05,15.393
			c6.693,2.989,13.715,5.442,20.815,7.281C216.714,211.693,230.701,200.639,230.356,184.596z M154.982,210.791
			c0.19,0.042,0.38,0.09,0.567,0.132c0.788,7.644,1.297,15.333,2.565,22.896c0.299,1.787,3.169,4.494,4.812,4.462
			c4.847-0.099,9.984-6.554,8.158-10.788c-3.374-7.805-7.801-15.18-12.23-22.465c-0.781-1.288-4.111-2.266-5.58-1.68
			c-5.562,2.219-15.497,22.859-13,28.488c1.38,3.111,6.103,4.739,9.32,7.03c1.335-2.441,3.495-4.771,3.844-7.351
			C154.373,224.668,154.522,217.705,154.982,210.791z"/>
	</g>
	<g id="Layer_4">
		<defs>
			<filter id="Adobe_OpacityMaskFilter" filterUnits="userSpaceOnUse" x="-155.271" y="-164.266" width="646.316" height="654.51">
				<feColorMatrix  type="matrix" values="1 0 0 0 0  0 1 0 0 0  0 0 1 0 0  0 0 0 1 0"/>
			</filter>
		</defs>
		<mask maskUnits="userSpaceOnUse" x="-155.271" y="-164.266" width="646.316" height="654.51" id="SVGID_1_">
			<g filter="url(#Adobe_OpacityMaskFilter)">
				<g>
					<path fill="#FFFFFF" d="M241.34,198.3c13.538,9.896,5.427,20.954,1.286,29.933c-5.75,12.468-5.485,13.08-18.992,10.394
						c-1.553-0.306-3.671,1.004-5.196,2.058c-3.251,2.26-6.127,5.088-9.448,7.233c-4.314,2.796-5.122,5.772-3.883,11.022
						c1.006,4.3-0.526,9.496-1.961,13.961c-0.853,2.648-8.701,7.06-11.889,7.174l-0.972-4.536l-1.46-0.263l-0.167,5.822
						c-2.236,1.391-6.459,2.152-8.698,1.452c0,0-0.617-4.784-1.016-6.771c-0.788,0.884-2.281,2.281-2.281,2.281l-0.34,6.666
						c-0.33,0.279-4.604,2.517-7.051,0.76c-1.006-0.723-0.445-5.588-0.445-5.588l-1.157,0.752l-0.659,5.263
						c-2.799,1.868-8.198,2.635-10.376,1.161c-0.812-0.557-1.365-6.885-1.365-6.885l-1.128-0.025c0,0-1.038,7.691-3.31,7.874
						c-1.356,0.108-5.767,0.713-8.04-1.589l-0.98-5.12l-1.563-0.452l0.101,4.624c-2.144,1.692-6.186,0.688-7.147-0.558
						c-0.76-0.979-0.655-5.977-0.655-5.977s-1.404-1.053-2.129-1.787c-0.534,1.766-1.119,6.438-1.119,6.438
						c-1.928,2.068-5.472-0.17-8.142-1.76c-0.373-0.221-0.682-4.797-0.682-4.797l-1.192-0.453l-1.536,4.461
						c-3.948,1.109-6.349-3.307-8.603-7.416c-2.721-4.948-3.897-9.553-1.594-14.844c0.477-1.088,1.01-2.422,0.799-3.502
						c-0.761-3.931-18.444-14.021-22.341-12.957c-6.012,1.645-11.293,1.396-14.465-5.177c-2.46-5.094-5.23-10.036-7.803-15.077
						c-3.309-6.49-8.38-9.804-1.584-16.078c2.625-2.422,3.97-10.737,4.418-15.334c0.456-4.651-0.133-15.236-0.133-15.236
						l1.617-8.786l3.103-6.812l5.605-6.812l-0.133-5.923c0,0-2.521-9.204-2.579-9.565c-0.193-0.009,1.349,10.466,1.349,10.466
						l-0.281,4.378c0,0-3.035,3.423-5.605,6.468c-2.727,3.225-4.993,6.099-5.108,6.505c-1.476,6.901-0.878,16.021-1.59,26.639
						c-3.071-9.962-5.383-17.247-6.294-26.179c-2.456-23.973-5.034-48.02-0.693-72.19c2.638-14.671,7.655-26.872,20.667-35.973
						c19.217-13.43,38.47-25.993,62.043-30.448c16.427-3.103,32.682-1.746,47.349,5.176c17.57,8.299,34.863,17.933,50.348,29.559
						c6.767,5.074,10.292,16.14,12.587,25.171c5.177,20.392,5.724,41.391,3.256,62.307c-1.445,12.207-9.149,38.395-9.149,38.395
						c-1.171-10.581-0.957-19.711-2.731-26.544c-0.133-0.405-2.523-3.178-5.385-6.28c-2.695-2.937-5.876-6.224-5.876-6.224
						l-0.469-4.361c0,0,1.092-10.533,0.894-10.513c-0.036,0.361-2.163,9.666-2.163,9.666l0.125,5.924l5.89,6.565l3.393,6.673
						l1.989,8.705c0,0-0.13,10.604,0.521,15.226L241.34,198.3z"/>
					<path d="M97.727,166.566c-14.439,0.545-24.077,18.651-18.177,31.285c4.576,9.801,21.502,15.635,32.854,11.211
						c4.144-1.617,8.054-3.861,12.261-5.27c7.175-2.404,11.435-7.052,11.234-14.648c-0.266-10.098-7.24-20.49-15.141-21.396
						C115.032,167.094,103.487,166.352,97.727,166.566z M230.356,184.596c1.211-8.287-2.933-15.387-11.862-17.587
						c-7.601-1.873-15.85-1.396-23.816-1.438c-12.981-0.067-18.729,7.599-20.594,19.635c-1.085,6.979,0.635,12.523,7.05,15.393
						c6.693,2.989,13.715,5.442,20.815,7.281C216.714,211.693,230.701,200.639,230.356,184.596z M154.982,210.791
						c0.19,0.042,0.38,0.09,0.567,0.132c0.788,7.644,1.297,15.333,2.565,22.896c0.299,1.787,3.169,4.494,4.812,4.462
						c4.847-0.099,9.984-6.554,8.158-10.788c-3.374-7.805-7.801-15.18-12.23-22.465c-0.781-1.288-4.111-2.266-5.58-1.68
						c-5.562,2.219-15.497,22.859-13,28.488c1.38,3.111,6.103,4.739,9.32,7.03c1.335-2.441,3.495-4.771,3.844-7.351
						C154.373,224.668,154.522,217.705,154.982,210.791z"/>
				</g>
			</g>
		</mask>
		<g mask="url(#SVGID_1_)" enable-background="new    ">
			
				<rect x="-104.565" y="138.099" transform="matrix(-0.1415 -0.9899 0.9899 -0.1415 -0.0447 294.9071)" opacity="0.4" fill="#00FFF8" enable-background="new    " width="464.834" height="18.748"/>
			
				<rect x="0.542" y="249.167" transform="matrix(-0.1283 -0.9917 0.9917 -0.1283 6.445 522.7508)" opacity="0.4" fill="#00FF2A" enable-background="new    " width="464.838" height="18.751"/>
			
				<rect x="-111.268" y="138.473" transform="matrix(0.1644 0.9864 -0.9864 0.1644 247.0776 4.0308)" opacity="0.4" fill="#00FFF8" enable-background="new    " width="464.855" height="18.75"/>
			
				<rect x="47.315" y="85.956" transform="matrix(0.3465 -0.9381 0.9381 0.3465 93.3976 324.7244)" opacity="0.4" fill="#00FFF8" enable-background="new    " width="464.877" height="18.75"/>
			
				<rect x="-26.325" y="101.785" transform="matrix(0.7311 -0.6822 0.6822 0.7311 -20.4241 170.4882)" opacity="0.4" fill="#00FFF8" enable-background="new    " width="464.831" height="18.744"/>
			
				<rect x="-147" y="258.515" transform="matrix(-0.9697 0.2445 -0.2445 -0.9697 233.7848 506.763)" opacity="0.4" fill="#F927FF" enable-background="new    " width="464.881" height="18.752"/>
			<polygon opacity="0.4" fill="#F927FF" enable-background="new    " points="394.319,198.771 -67.579,251.109 -69.694,232.484 
				392.213,180.143 			"/>
			
				<rect x="-122.037" y="106.941" transform="matrix(-0.0347 -0.9994 0.9994 -0.0347 -2.0238 230.679)" opacity="0.4" fill="#00FF2A" enable-background="new    " width="464.859" height="18.751"/>
			
				<rect x="-158.078" y="194.03" transform="matrix(0.9603 -0.2788 0.2788 0.9603 -53.764 28.7921)" opacity="0.4" fill="#00FFF8" enable-background="new    " width="464.832" height="18.75"/>
			
				<rect x="-116.965" y="272.997" transform="matrix(0.4975 0.8675 -0.8675 0.4975 302.9764 41.7292)" opacity="0.4" fill="#00FF2A" enable-background="new    " width="464.87" height="18.753"/>
			
				<rect x="-72.281" y="78.181" transform="matrix(-0.9827 0.1853 -0.1853 -0.9827 333.7483 143.9194)" opacity="0.4" fill="#00FFF8" enable-background="new    " width="464.86" height="18.75"/>
			<polygon opacity="0.4" fill="#F927FF" enable-background="new    " points="112.104,374.62 309.254,-46.359 326.236,-38.409 
				129.083,382.568 			"/>
			<polygon opacity="0.4" fill="#00FF2A" enable-background="new    " points="207.206,3.395 -95.131,356.497 -109.375,344.307 
				192.964,-8.797 			"/>
			<polygon opacity="0.4" fill="#F927FF" enable-background="new    " points="-47.407,142.54 375.315,335.926 367.51,352.975 
				-55.21,159.591 			"/>
			
				<rect x="-81.156" y="148.467" transform="matrix(0.3409 -0.9401 0.9401 0.3409 -48.6818 246.2454)" opacity="0.4" fill="#00FF2A" enable-background="new    " width="464.858" height="18.748"/>
			
				<rect x="-122.662" y="34.438" transform="matrix(0.6564 0.7544 -0.7544 0.6564 70.7678 -67.7512)" opacity="0.4" fill="#00FFF8" enable-background="new    " width="464.85" height="18.753"/>
			
				<rect x="-34.493" y="110.991" transform="matrix(-0.9588 0.284 -0.284 -0.9588 421.8947 179.5609)" opacity="0.4" fill="#F927FF" enable-background="new    " width="464.847" height="18.75"/>
			
				<rect x="-149.537" y="208.209" transform="matrix(0.1561 0.9877 -0.9877 0.1561 284.8593 101.7515)" opacity="0.4" fill="#F927FF" enable-background="new    " width="464.838" height="18.749"/>
			<polygon opacity="0.4" fill="#00FFF8" enable-background="new    " points="-42.96,316.335 380.979,125.634 388.669,142.733 
				-35.267,333.43 			"/>
			
				<rect x="15.954" y="83.994" transform="matrix(0.9981 0.0622 -0.0622 0.9981 6.2882 -15.2683)" opacity="0.4" fill="#00FFF8" enable-background="new    " width="464.872" height="18.752"/>
			<polygon opacity="0.4" fill="#00FFF8" enable-background="new    " points="-5.078,143.007 377.602,-120.901 388.244,-105.465 
				5.564,158.444 			"/>
			
				<rect x="-56.385" y="87.277" transform="matrix(0.2907 -0.9568 0.9568 0.2907 32.3862 236.993)" opacity="0.4" fill="#00FFF8" enable-background="new    " width="464.85" height="18.751"/>
			
				<rect x="-130.623" y="138.746" transform="matrix(-0.167 0.986 -0.986 -0.167 264.8604 72.4715)" opacity="0.4" fill="#F927FF" enable-background="new    " width="464.876" height="18.753"/>
			
				<rect x="-182.99" y="78.468" transform="matrix(0.3962 -0.9182 0.9182 0.3962 -50.7984 98.4411)" opacity="0.4" fill="#F927FF" enable-background="new    " width="464.873" height="18.751"/>
			
				<rect x="-71.416" y="80.031" transform="matrix(-0.7746 -0.6325 0.6325 -0.7746 229.1896 260.5023)" opacity="0.4" fill="#00FFF8" enable-background="new    " width="464.868" height="18.755"/>
			<polygon opacity="0.4" fill="#00FF2A" enable-background="new    " points="290.355,244.329 -41.536,-81.154 -28.409,-94.537 
				303.486,230.945 			"/>
			
				<rect x="-37.751" y="151.735" transform="matrix(-0.1392 0.9903 -0.9903 -0.1392 381.3277 -9.2519)" opacity="0.4" fill="#00FF2A" enable-background="new    " width="464.871" height="18.754"/>
			
				<rect x="39.665" y="149.947" transform="matrix(0.0334 -0.9994 0.9994 0.0334 103.7638 425.9291)" opacity="0.4" fill="#00FFF8" enable-background="new    " width="464.836" height="18.746"/>
			<polygon opacity="0.4" fill="#F927FF" enable-background="new    " points="-15.796,-16.622 418.403,149.397 411.706,166.909 
				-22.497,0.893 			"/>
			
				<rect x="-62.267" y="148.593" transform="matrix(-0.3659 0.9307 -0.9307 -0.3659 379.4465 57.3963)" opacity="0.4" fill="#00FFF8" enable-background="new    " width="464.873" height="18.75"/>
			
				<rect x="15.967" y="84.008" transform="matrix(-0.9995 0.0316 -0.0316 -0.9995 499.6159 178.8707)" opacity="0.4" fill="#00FFF8" enable-background="new    " width="464.854" height="18.751"/>
			<polygon opacity="0.4" fill="#00FFF8" enable-background="new    " points="-59.502,24.894 307.415,310.307 295.902,325.105 
				-71.02,39.689 			"/>
			
				<rect x="-110.077" y="45.373" transform="matrix(0.5008 0.8656 -0.8656 0.5008 108.4696 -78.5784)" opacity="0.4" fill="#00FFF8" enable-background="new    " width="464.868" height="18.746"/>
			<polygon opacity="0.4" fill="#00FFF8" enable-background="new    " points="113.147,385.529 224.726,-65.732 242.926,-61.232 
				131.35,390.036 			"/>
			<polygon opacity="0.4" fill="#00FFF8" enable-background="new    " points="-45.793,219.973 398.217,82.331 403.766,100.241 
				-40.245,237.884 			"/>
			
				<rect x="-9.309" y="132.842" transform="matrix(-0.1069 0.9943 -0.9943 -0.1069 388.3777 -64.4294)" opacity="0.4" fill="#F927FF" enable-background="new    " width="464.87" height="18.748"/>
			
				<rect x="3.076" y="162.105" transform="matrix(-0.9755 -0.22 0.22 -0.9755 427.5169 390.5698)" opacity="0.4" fill="#F927FF" enable-background="new    " width="464.859" height="18.75"/>
			
				<rect x="-96.047" y="208.882" transform="matrix(-0.9417 0.3364 -0.3364 -0.9417 338.2285 377.9124)" opacity="0.4" fill="#F927FF" enable-background="new    " width="464.848" height="18.747"/>
			
				<rect x="3.249" y="278.479" transform="matrix(0.9304 0.3666 -0.3666 0.9304 121.9334 -66.359)" opacity="0.4" fill="#00FFF8" enable-background="new    " width="464.862" height="18.749"/>
			
				<rect x="-8.879" y="77.059" transform="matrix(0.9053 0.4247 -0.4247 0.9053 57.872 -86.7582)" opacity="0.4" fill="#F927FF" enable-background="new    " width="464.842" height="18.748"/>
			
				<rect x="-47.083" y="100.055" transform="matrix(-0.2741 0.9617 -0.9617 -0.2741 341.3871 -38.8242)" opacity="0.4" fill="#F927FF" enable-background="new    " width="464.858" height="18.748"/>
			
				<rect x="-84.986" y="227.447" transform="matrix(0.079 -0.9969 0.9969 0.079 -100.2822 365.0981)" opacity="0.4" fill="#00FFF8" enable-background="new    " width="464.866" height="18.748"/>
			
				<rect x="-83.377" y="59.617" transform="matrix(0.9995 0.0331 -0.0331 0.9995 2.3652 -4.8959)" opacity="0.4" fill="#F927FF" enable-background="new    " width="464.878" height="18.748"/>
			
				<rect x="-84.874" y="67.244" transform="matrix(0.1882 0.9821 -0.9821 0.1882 195.0272 -82.7107)" opacity="0.4" fill="#00FFF8" enable-background="new    " width="464.841" height="18.75"/>
			
				<rect x="-59.762" y="249.335" transform="matrix(0.9287 0.3707 -0.3707 0.9287 108.2107 -45.5721)" opacity="0.4" fill="#F927FF" enable-background="new    " width="464.833" height="18.748"/>
			
				<rect x="22.131" y="64.078" transform="matrix(0.6787 0.7344 -0.7344 0.6787 135.7319 -163.3492)" opacity="0.4" fill="#F927FF" enable-background="new    " width="464.853" height="18.75"/>
			
				<rect x="-26.35" y="101.777" transform="matrix(0.9959 0.0907 -0.0907 0.9959 10.9305 -18.2331)" opacity="0.4" fill="#00FFF8" enable-background="new    " width="464.865" height="18.749"/>
			
				<rect x="-135.359" y="183.704" transform="matrix(-0.4313 0.9022 -0.9022 -0.4313 313.1281 188.7796)" opacity="0.4" fill="#00FFF8" enable-background="new    " width="464.852" height="18.749"/>
			
				<rect x="-145.241" y="86.138" transform="matrix(-0.6288 0.7775 -0.7775 -0.6288 216.2586 87.7901)" opacity="0.4" fill="#F927FF" enable-background="new    " width="464.832" height="18.747"/>
			
				<rect x="-34.489" y="110.977" transform="matrix(0.8529 0.5221 -0.5221 0.8529 91.9548 -85.6386)" opacity="0.4" fill="#F927FF" enable-background="new    " width="464.862" height="18.751"/>
			
				<rect x="59.926" y="96.881" transform="matrix(0.5079 0.8614 -0.8614 0.5079 235.3946 -199.5464)" opacity="0.4" fill="#F927FF" enable-background="new    " width="464.85" height="18.751"/>
			<polygon opacity="0.4" fill="#F927FF" enable-background="new    " points="168.82,-134.097 195.389,330.001 176.671,331.068 
				150.099,-133.028 			"/>
			<polygon opacity="0.4" fill="#00FFF8" enable-background="new    " points="74.375,349.562 48.916,-114.594 67.639,-115.625 
				93.096,348.54 			"/>
			<polygon opacity="0.4" fill="#F927FF" enable-background="new    " points="38.015,288.113 291.766,-101.378 307.474,-91.141 
				53.726,298.354 			"/>
			
				<rect x="-21.976" y="275.726" transform="matrix(-0.911 -0.4124 0.4124 -0.911 284.5958 631.6141)" opacity="0.4" fill="#00FFF8" enable-background="new    " width="464.853" height="18.745"/>
			
				<rect x="-29.538" y="234.658" transform="matrix(-0.8182 -0.5749 0.5749 -0.8182 228.5945 560.343)" opacity="0.4" fill="#00FFF8" enable-background="new    " width="464.849" height="18.747"/>
			<polygon opacity="0.4" fill="#00FF2A" enable-background="new    " points="363.371,-16.77 213.602,423.299 195.848,417.261 
				345.623,-22.807 			"/>
			<polygon opacity="0.4" fill="#F927FF" enable-background="new    " points="-89.453,0.583 356.671,131.217 351.4,149.208 
				-94.725,18.578 			"/>
			<polygon opacity="0.4" fill="#F927FF" enable-background="new    " points="199.137,477.062 102.623,22.338 120.961,18.448 
				217.48,473.176 			"/>
			<polygon opacity="0.4" fill="#00FFF8" enable-background="new    " points="188.033,-46.884 66.462,401.791 48.366,396.888 
				169.937,-51.793 			"/>
			
				<rect x="-166.447" y="219.403" transform="matrix(-0.6075 -0.7943 0.7943 -0.6075 -75.6599 420.1682)" opacity="0.4" fill="#F927FF" enable-background="new    " width="464.851" height="18.748"/>
			
				<rect x="-110.147" y="205.589" transform="matrix(0.7669 -0.6417 0.6417 0.7669 -109.4498 128.5658)" opacity="0.4" fill="#00FFF8" enable-background="new    " width="464.837" height="18.748"/>
			<polygon opacity="0.4" fill="#F927FF" enable-background="new    " points="187.476,305.777 89.3,-148.59 107.626,-152.548 
				205.802,301.822 			"/>
			
				<rect x="-84.965" y="227.434" transform="matrix(-0.9565 0.2916 -0.2916 -0.9565 357.552 420.326)" opacity="0.4" fill="#00FFF8" enable-background="new    " width="464.834" height="18.749"/>
			
				<rect x="-59.773" y="249.323" transform="matrix(-0.9998 0.0215 -0.0215 -0.9998 350.845 513.6227)" opacity="0.4" fill="#F927FF" enable-background="new    " width="464.869" height="18.748"/>
			<polygon opacity="0.4" fill="#00FFF8" enable-background="new    " points="337.263,450.955 82.888,61.876 98.577,51.621 
				352.958,440.696 			"/>
			<polygon opacity="0.4" fill="#F927FF" enable-background="new    " points="-119.824,203.744 344.348,178.572 345.365,197.299 
				-118.811,222.465 			"/>
			
				<rect x="-122.975" y="104.722" transform="matrix(-0.2943 -0.9557 0.9557 -0.2943 32.6166 252.2774)" opacity="0.4" fill="#F927FF" enable-background="new    " width="464.849" height="18.749"/>
			
				<rect x="-15.657" y="31.271" transform="matrix(-0.711 -0.7032 0.7032 -0.711 342.3124 221.9793)" opacity="0.4" fill="#00FFF8" enable-background="new    " width="464.856" height="18.751"/>
			<polygon opacity="0.4" fill="#F927FF" enable-background="new    " points="-6.198,297.055 446.378,190.9 450.658,209.154 
				-1.917,315.302 			"/>
			
				<rect x="-45.09" y="105.727" transform="matrix(0.1377 -0.9905 0.9905 0.1377 47.5427 284.8106)" opacity="0.4" fill="#00FFF8" enable-background="new    " width="464.868" height="18.747"/>
			
				<rect x="-31.222" y="151.747" transform="matrix(-0.9379 0.3469 -0.3469 -0.9379 445.8086 242.4428)" opacity="0.4" fill="#00FFF8" enable-background="new    " width="464.854" height="18.752"/>
			
				<rect x="-122.767" y="194.641" transform="matrix(-0.9231 -0.3845 0.3845 -0.9231 132.4348 434.5103)" opacity="0.4" fill="#00FFF8" enable-background="new    " width="464.845" height="18.749"/>
			
				<rect x="-101.916" y="280.265" transform="matrix(-0.9979 -0.0651 0.0651 -0.9979 241.9004 587.1615)" opacity="0.4" fill="#00FFF8" enable-background="new    " width="464.865" height="18.75"/>
			
				<rect x="-92.951" y="119.225" transform="matrix(0.1991 -0.98 0.98 0.1991 -14.3135 239.6858)" opacity="0.4" fill="#00FF2A" enable-background="new    " width="464.867" height="18.749"/>
			
				<rect x="3.27" y="278.486" transform="matrix(-0.9189 0.3944 -0.3944 -0.9189 565.8411 459.4338)" opacity="0.4" fill="#00FFF8" enable-background="new    " width="464.88" height="18.754"/>
			
				<rect x="-79.328" y="215.903" transform="matrix(-0.6491 -0.7607 0.7607 -0.6491 81.104 487.9636)" opacity="0.4" fill="#5EFF00" enable-background="new    " width="464.85" height="18.746"/>
			<polygon opacity="0.4" fill="#F927FF" enable-background="new    " points="273.42,225.549 -49.556,-108.787 -36.069,-121.814 
				286.899,212.523 			"/>
			<polygon opacity="0.4" fill="#00FFF8" enable-background="new    " points="406.143,37 9.377,279.206 -0.396,263.204 
				396.378,20.996 			"/>
			
				<rect x="-134.682" y="183.892" transform="matrix(-0.994 -0.1093 0.1093 -0.994 173.7801 396.0588)" opacity="0.4" fill="#F927FF" enable-background="new    " width="464.854" height="18.749"/>
			
				<rect x="47.328" y="85.938" transform="matrix(0.065 0.9979 -0.9979 0.065 356.6876 -190.0483)" opacity="0.4" fill="#00FFF8" enable-background="new    " width="464.862" height="18.752"/>
			
				<rect x="-42.724" y="148.615" transform="matrix(0.5771 -0.8167 0.8167 0.5771 -48.7982 221.7462)" opacity="0.4" fill="#00FFF8" enable-background="new    " width="464.862" height="18.75"/>
			<polygon opacity="0.4" fill="#00FFF8" enable-background="new    " points="-79.807,138.033 366.564,8.259 371.795,26.262 
				-74.575,156.037 			"/>
			
				<rect x="-122.758" y="194.647" transform="matrix(0.853 -0.5219 0.5219 0.853 -90.3585 87.2261)" opacity="0.4" fill="#00FFF8" enable-background="new    " width="464.852" height="18.747"/>
			
				<rect x="-74.593" y="212.897" transform="matrix(-0.9865 0.1636 -0.1636 -0.9865 349.8994 415.7254)" opacity="0.4" fill="#F927FF" enable-background="new    " width="464.847" height="18.748"/>
			
				<rect x="-9.295" y="132.853" transform="matrix(-0.6298 0.7768 -0.7768 -0.6298 474.1505 58.4704)" opacity="0.4" fill="#F927FF" enable-background="new    " width="464.872" height="18.751"/>
			
				<rect x="-131.506" y="51.017" transform="matrix(-0.6701 -0.7423 0.7423 -0.6701 123.7278 175.7785)" opacity="0.4" fill="#F927FF" enable-background="new    " width="464.865" height="18.752"/>
			
				<rect x="9.545" y="53.14" transform="matrix(0.3409 -0.9401 0.9401 0.3409 100.7154 268.6822)" opacity="0.4" fill="#F927FF" enable-background="new    " width="464.856" height="18.747"/>
			
				<rect x="-178.627" y="119.881" transform="matrix(0.6735 -0.7392 0.7392 0.6735 -77.9781 81.9726)" opacity="0.4" fill="#00FF2A" enable-background="new    " width="464.858" height="18.749"/>
			<polygon opacity="0.4" fill="#00FFF8" enable-background="new    " points="260.082,-56.559 97.814,379.053 80.243,372.514 
				242.511,-63.104 			"/>
			
				<rect x="-90.224" y="103.447" transform="matrix(-0.4525 0.8918 -0.8918 -0.4525 307.1713 37.0502)" opacity="0.4" fill="#F927FF" enable-background="new    " width="464.872" height="18.749"/>
			
				<rect x="-29.598" y="155.354" transform="matrix(0.4406 0.8977 -0.8977 0.4406 261.3402 -89.9326)" opacity="0.4" fill="#F927FF" enable-background="new    " width="464.856" height="18.748"/>
			
				<rect x="-149.524" y="208.221" transform="matrix(-0.4267 -0.9044 0.9044 -0.4267 -78.5114 385.4234)" opacity="0.4" fill="#F927FF" enable-background="new    " width="464.86" height="18.749"/>
			
				<rect x="-9.286" y="87.645" transform="matrix(0.9256 0.3785 -0.3785 0.9256 53.3236 -77.2408)" opacity="0.4" fill="#F927FF" enable-background="new    " width="464.855" height="18.75"/>
			
				<rect x="-53.423" y="-1.541" transform="matrix(0.9412 -0.3377 0.3377 0.9412 7.8712 60.9098)" opacity="0.4" fill="#00FF2A" enable-background="new    " width="464.836" height="18.746"/>
			<polygon opacity="0.4" fill="#00FF2A" enable-background="new    " points="348.662,263.65 -116.185,267.041 -116.319,248.297 
				348.521,244.898 			"/>
			<polygon opacity="0.4" fill="#00FFF8" enable-background="new    " points="114.445,359.864 145.819,-103.931 164.525,-102.668 
				133.152,361.133 			"/>
			
				<rect x="47.165" y="190.874" transform="matrix(-0.4499 -0.8931 0.8931 -0.4499 226.5471 540.0422)" opacity="0.4" fill="#00FF2A" enable-background="new    " width="464.864" height="18.749"/>
			
				<rect x="-61.961" y="135.946" transform="matrix(-0.0377 -0.9993 0.9993 -0.0377 31.6807 321.1467)" opacity="0.4" fill="#00FFF8" enable-background="new    " width="464.863" height="18.746"/>
			
				<rect x="15.952" y="101.827" transform="matrix(-0.7237 0.6901 -0.6901 -0.7237 504.8696 20.2734)" opacity="0.4" fill="#00FFF8" enable-background="new    " width="464.85" height="18.75"/>
			<polygon opacity="0.4" fill="#F927FF" enable-background="new    " points="269.746,-6.806 -58.755,322.098 -72.021,308.848 
				256.487,-20.053 			"/>
			
				<rect x="-40.858" y="9.388" transform="matrix(0.9998 0.0218 -0.0218 0.9998 0.4546 -4.172)" opacity="0.4" fill="#00FFF8" enable-background="new    " width="464.874" height="18.753"/>
			
				<rect x="-166.455" y="219.408" transform="matrix(0.5502 0.835 -0.835 0.5502 220.7099 47.8178)" opacity="0.4" fill="#F927FF" enable-background="new    " width="464.846" height="18.749"/>
			
				<rect x="-59.053" y="184.14" transform="matrix(-0.9969 -0.0781 0.0781 -0.9969 331.0877 399.9771)" opacity="0.4" fill="#F927FF" enable-background="new    " width="464.838" height="18.747"/>
			<path opacity="0.4" fill="#FFFFFF" enable-background="new    " d="M174.685-5.152"/>
			<polygon opacity="0.4" fill="#00FFF8" enable-background="new    " points="197.878,402.722 -20.298,-7.753 -3.741,-16.552 
				214.432,393.928 			"/>
			<polygon opacity="0.4" fill="#00FFF8" enable-background="new    " points="209.049,372.557 48.342,-63.633 65.934,-70.117 
				226.644,366.078 			"/>
			
				<rect x="-110.15" y="205.588" transform="matrix(0.9349 -0.3548 0.3548 0.9349 -68.3168 57.3686)" opacity="0.4" fill="#00FFF8" enable-background="new    " width="464.837" height="18.75"/>
			
				<rect x="-154.282" y="158.904" transform="matrix(0.9997 -0.0239 0.0239 0.9997 -3.9994 1.9156)" opacity="0.4" fill="#F927FF" enable-background="new    " width="464.85" height="18.753"/>
			
				<rect x="-53.453" y="-1.541" transform="matrix(0.9885 0.1514 -0.1514 0.9885 3.2488 -27.0068)" opacity="0.4" fill="#00FF2A" enable-background="new    " width="464.87" height="18.746"/>
			
				<rect x="-86.43" y="72.776" transform="matrix(-0.36 0.9329 -0.9329 -0.36 275.1852 -24.4729)" opacity="0.4" fill="#00FFF8" enable-background="new    " width="464.834" height="18.746"/>
			<polygon opacity="0.4" fill="#00FFF8" enable-background="new    " points="418.987,210.402 -40.366,281.691 -43.243,263.17 
				416.116,191.876 			"/>
			<polygon opacity="0.4" fill="#00FF2A" enable-background="new    " points="-119.961,173.852 305.281,361.627 297.711,378.779 
				-127.531,191.002 			"/>
			
				<rect x="-0.16" y="244.833" transform="matrix(-0.9888 0.1491 -0.1491 -0.9888 499.8325 470.9425)" opacity="0.4" fill="#F927FF" enable-background="new    " width="464.846" height="18.749"/>
			
				<rect x="-97.473" y="56.313" transform="matrix(-0.9608 0.2772 -0.2772 -0.9608 282.8243 91.3906)" opacity="0.4" fill="#00FFF8" enable-background="new    " width="464.85" height="18.748"/>
			
				<rect x="-93.094" y="292.563" transform="matrix(0.9879 0.155 -0.155 0.9879 48.4851 -17.9474)" opacity="0.4" fill="#F927FF" enable-background="new    " width="464.848" height="18.748"/>
			
				<rect x="-68.716" y="239.929" transform="matrix(0.9998 -0.0216 0.0216 0.9998 -5.3461 3.5941)" opacity="0.4" fill="#00FF2A" enable-background="new    " width="464.873" height="18.751"/>
			
				<rect x="-21.987" y="282.112" transform="matrix(-0.9982 -0.0594 0.0594 -0.9982 403.1797 594.9584)" opacity="0.4" fill="#F927FF" enable-background="new    " width="464.841" height="18.748"/>
			<polygon opacity="0.4" fill="#00FF2A" enable-background="new    " points="396.819,276.256 -16.055,62.656 -7.438,46 
				405.435,259.605 			"/>
			
				<rect x="3.077" y="162.107" transform="matrix(-0.7105 -0.7037 0.7037 -0.7105 282.1615 459.0449)" opacity="0.4" fill="#F927FF" enable-background="new    " width="464.859" height="18.75"/>
			
				<rect x="78.956" y="163.362" transform="matrix(0.2869 -0.958 0.958 0.2869 56.5807 421.4844)" opacity="0.4" fill="#00FF2A" enable-background="new    " width="464.874" height="18.752"/>
			
				<rect x="-105.464" y="195.463" transform="matrix(0.8062 -0.5916 0.5916 0.8062 -96.582 114.8037)" opacity="0.4" fill="#00FFF8" enable-background="new    " width="464.846" height="18.746"/>
			
				<rect x="-73.947" y="117.272" transform="matrix(-0.2983 -0.9545 0.9545 -0.2983 84.8813 315.6938)" opacity="0.4" fill="#00FFF8" enable-background="new    " width="464.866" height="18.747"/>
			
				<rect x="-6.699" y="119.123" transform="matrix(-0.2554 0.9668 -0.9668 -0.2554 407.6069 -56.9168)" opacity="0.4" fill="#00FFF8" enable-background="new    " width="464.839" height="18.748"/>
			
				<rect x="-133.971" y="227.105" transform="matrix(0.9782 -0.2078 0.2078 0.9782 -46.9897 25.6219)" opacity="0.4" fill="#F927FF" enable-background="new    " width="464.87" height="18.75"/>
			<polygon opacity="0.4" fill="#00FFF8" enable-background="new    " points="0.42,278.604 391.867,27.888 401.983,43.678 
				10.527,294.389 			"/>
			
				<rect x="-170.935" y="159.931" transform="matrix(0.7127 0.7014 -0.7014 0.7127 136.4177 5.5099)" opacity="0.4" fill="#F927FF" enable-background="new    " width="464.833" height="18.748"/>
			
				<rect x="-102.827" y="129.736" transform="matrix(0.8328 -0.5536 0.5536 0.8328 -55.3383 95.0078)" opacity="0.4" fill="#00FF2A" enable-background="new    " width="464.861" height="18.746"/>
			
				<rect x="-89.59" y="205.652" transform="matrix(-0.1043 -0.9945 0.9945 -0.1043 -56.1279 379.505)" opacity="0.4" fill="#F927FF" enable-background="new    " width="464.838" height="18.75"/>
			
				<rect x="-3.055" y="42.2" transform="matrix(-0.7014 -0.7128 0.7128 -0.7014 353.4987 251.2491)" opacity="0.4" fill="#00FF2A" enable-background="new    " width="464.867" height="18.753"/>
			
				<rect x="-97.583" y="216.518" transform="matrix(-0.8838 -0.4679 0.4679 -0.8838 148.3298 488.6306)" opacity="0.4" fill="#00FFF8" enable-background="new    " width="464.862" height="18.752"/>
			<path opacity="0.4" fill="#FFFFFF" enable-background="new    " d="M174.685-5.152"/>
			<polygon opacity="0.4" fill="#00FFF8" enable-background="new    " points="220.352,-141.835 253.772,321.82 235.07,323.164 
				201.655,-140.488 			"/>
			
				<rect x="-184.957" y="46.64" transform="matrix(-0.5914 0.8064 -0.8064 -0.5914 120.72 50.8621)" opacity="0.4" fill="#00FFF8" enable-background="new    " width="464.862" height="18.754"/>
			
				<rect x="-161.539" y="36.515" transform="matrix(0.7878 0.6159 -0.6159 0.7878 43.3046 -33.9215)" opacity="0.4" fill="#F927FF" enable-background="new    " width="464.848" height="18.749"/>
			
				<rect x="-79.33" y="215.893" transform="matrix(-0.9994 -0.0341 0.0341 -0.9994 298.4123 455.6218)" opacity="0.4" fill="#5EFF00" enable-background="new    " width="464.843" height="18.746"/>
			
				<rect x="15.961" y="129.208" transform="matrix(-0.4712 -0.882 0.882 -0.4712 243.1894 422.9641)" opacity="0.4" fill="#00FFF8" enable-background="new    " width="464.843" height="18.751"/>
			
				<rect x="9.543" y="53.129" transform="matrix(0.2618 -0.9651 0.9651 0.2618 118.2942 279.6668)" opacity="0.4" fill="#F927FF" enable-background="new    " width="464.846" height="18.75"/>
			
				<rect x="-122.663" y="34.44" transform="matrix(-0.8481 0.5298 -0.5298 -0.8481 226.0632 22.8225)" opacity="0.4" fill="#00FFF8" enable-background="new    " width="464.846" height="18.75"/>
			<polygon opacity="0.4" fill="#F927FF" enable-background="new    " points="141.465,-51.152 314.279,380.389 296.872,387.363 
				124.059,-44.179 			"/>
			<polygon opacity="0.4" fill="#00FFF8" enable-background="new    " points="430.078,153.172 16.842,366.068 8.26,349.404 
				421.496,136.503 			"/>
			
				<rect x="-132.919" y="119.111" transform="matrix(0.6422 0.7665 -0.7665 0.6422 134.0863 -30.3018)" opacity="0.4" fill="#00FF2A" enable-background="new    " width="464.843" height="18.747"/>
			
				<rect x="-29.602" y="155.348" transform="matrix(0.0014 -1 1 0.0014 37.8192 367.3179)" opacity="0.4" fill="#F927FF" enable-background="new    " width="464.854" height="18.749"/>
			
				<rect x="-82.297" y="181.529" transform="matrix(-0.5208 -0.8537 0.8537 -0.5208 65.3529 418.4944)" opacity="0.4" fill="#F927FF" enable-background="new    " width="464.865" height="18.75"/>
			<polygon opacity="0.4" fill="#00FFF8" enable-background="new    " points="-68.089,300.402 372.071,150.905 378.104,168.657 
				-62.056,318.156 			"/>
			<polygon opacity="0.4" fill="#00FFF8" enable-background="new    " points="58.208,-15.001 378.072,322.311 364.461,335.212 
				44.603,-2.099 			"/>
			
				<rect x="-110.074" y="45.374" transform="matrix(-0.837 0.5473 -0.5473 -0.837 254.7398 33.6019)" opacity="0.4" fill="#00FFF8" enable-background="new    " width="464.877" height="18.746"/>
			
				<rect x="-47.185" y="260.25" transform="matrix(-0.9988 -0.0487 0.0487 -0.9988 357.1257 547.9524)" opacity="0.4" fill="#00FFF8" enable-background="new    " width="464.848" height="18.752"/>
			
				<rect x="-120.985" y="156.857" transform="matrix(-0.8342 0.5515 -0.5515 -0.8342 296.0907 243.4379)" opacity="0.4" fill="#F927FF" enable-background="new    " width="464.865" height="18.75"/>
			
				<rect x="-45.081" y="105.725" transform="matrix(-0.629 -0.7774 0.7774 -0.629 215.7067 333.1382)" opacity="0.4" fill="#00FFF8" enable-background="new    " width="464.852" height="18.748"/>
			
				<rect x="-72.273" y="78.174" transform="matrix(-0.8799 -0.4751 0.4751 -0.8799 259.4727 240.6723)" opacity="0.4" fill="#00FFF8" enable-background="new    " width="464.844" height="18.747"/>
			
				<rect x="-74.591" y="212.901" transform="matrix(0.9989 0.0469 -0.0469 0.9989 10.5983 -7.158)" opacity="0.4" fill="#F927FF" enable-background="new    " width="464.86" height="18.747"/>
			
				<rect x="-78.594" y="145.222" transform="matrix(0.232 -0.9727 0.9727 0.232 -32.2378 268.364)" opacity="0.4" fill="#00FFF8" enable-background="new    " width="464.85" height="18.752"/>
			<polygon opacity="0.4" fill="#00FFF8" enable-background="new    " points="322.53,345.537 -97.426,146.213 -89.382,129.275 
				330.572,328.6 			"/>
			
				<rect x="-78.468" y="174.826" transform="matrix(-0.2116 0.9774 -0.9774 -0.2116 366.5768 72.6928)" opacity="0.4" fill="#F927FF" enable-background="new    " width="464.873" height="18.749"/>
			
				<rect x="-6.725" y="119.101" transform="matrix(-0.2407 -0.9706 0.9706 -0.2407 155.3325 378.4691)" opacity="0.4" fill="#00FFF8" enable-background="new    " width="464.858" height="18.75"/>
			
				<rect x="-111.277" y="138.47" transform="matrix(0.908 -0.419 0.419 0.908 -50.7983 64.3655)" opacity="0.4" fill="#00FFF8" enable-background="new    " width="464.86" height="18.748"/>
			
				<rect x="-119.662" y="191.15" transform="matrix(-0.9465 -0.3228 0.3228 -0.9465 154.7793 426.7204)" opacity="0.4" fill="#F927FF" enable-background="new    " width="464.867" height="18.752"/>
			
				<rect x="-29.512" y="234.672" transform="matrix(0.9808 -0.1948 0.1948 0.9808 -43.6546 44.2032)" opacity="0.4" fill="#00FFF8" enable-background="new    " width="464.837" height="18.747"/>
			
				<rect x="-45.93" y="151.979" transform="matrix(-0.5307 0.8475 -0.8475 -0.5307 422.2154 88.9319)" opacity="0.4" fill="#F927FF" enable-background="new    " width="464.834" height="18.749"/>
			
				<rect x="-115.851" y="228.024" transform="matrix(0.8452 0.5345 -0.5345 0.8452 144.9374 -25.5576)" opacity="0.4" fill="#00FFF8" enable-background="new    " width="464.87" height="18.752"/>
			<polygon opacity="0.4" fill="#00FFF8" enable-background="new    " points="-127.338,129.912 337.401,140.278 336.979,159.024 
				-127.759,148.657 			"/>
			
				<rect x="-47.169" y="77.067" transform="matrix(0.6966 0.7174 -0.7174 0.6966 118.2149 -106.6802)" opacity="0.4" fill="#F927FF" enable-background="new    " width="464.837" height="18.748"/>
			
				<rect x="-104.591" y="138.098" transform="matrix(0.3681 0.9298 -0.9298 0.3681 217.8999 -25.6766)" opacity="0.4" fill="#00FFF8" enable-background="new    " width="464.862" height="18.747"/>
			<polygon opacity="0.4" fill="#00FFF8" enable-background="new    " points="-50.163,167.354 413.576,135.161 414.872,153.866 
				-48.867,186.059 			"/>
			
				<rect x="27.659" y="198.597" transform="matrix(-0.923 0.3849 -0.3849 -0.923 580.2006 299.8156)" opacity="0.4" fill="#F927FF" enable-background="new    " width="464.874" height="18.751"/>
			<polygon opacity="0.4" fill="#00FFF8" enable-background="new    " points="273.864,369.809 204.354,-89.82 222.893,-92.63 
				292.406,367.006 			"/>
			<polygon opacity="0.4" fill="#00FFF8" enable-background="new    " points="335.281,-17.562 28.167,331.396 14.089,319.008 
				321.211,-29.947 			"/>
			<polygon opacity="0.4" fill="#F927FF" enable-background="new    " points="394.888,220.077 -69.861,229.919 -70.265,211.178 
				394.495,201.334 			"/>
			
				<rect x="-78.469" y="174.831" transform="matrix(0.9929 -0.1189 0.1189 0.9929 -20.8101 19.6124)" opacity="0.4" fill="#F927FF" enable-background="new    " width="464.851" height="18.748"/>
			
				<rect x="-94.924" y="141.851" transform="matrix(0.4701 0.8826 -0.8826 0.4701 206.3338 -41.2253)" opacity="0.4" fill="#00FFF8" enable-background="new    " width="464.848" height="18.75"/>
			
				<rect x="-101.929" y="160.475" transform="matrix(-0.4491 -0.8935 0.8935 -0.4491 37.3498 362.7324)" opacity="0.4" fill="#00FFF8" enable-background="new    " width="464.862" height="18.753"/>
			<polygon opacity="0.4" fill="#F927FF" enable-background="new    " points="68.471,314.889 482.525,103.584 491.045,120.286 
				76.991,331.592 			"/>
			
				<rect x="-135.522" y="180.957" transform="matrix(-0.8124 0.5832 -0.5832 -0.8124 286.646 288.4299)" opacity="0.4" fill="#00FFF8" enable-background="new    " width="464.881" height="18.751"/>
			
				<rect x="-71.391" y="80.027" transform="matrix(0.5405 -0.8413 0.8413 0.5405 -1.2295 176.5558)" opacity="0.4" fill="#00FFF8" enable-background="new    " width="464.836" height="18.752"/>
			
				<rect x="-34.589" y="110.117" transform="matrix(0.731 -0.6824 0.6824 0.731 -28.3196 167.1496)" opacity="0.4" fill="#F927FF" enable-background="new    " width="464.86" height="18.753"/>
			
				<rect x="-220.151" y="129.092" transform="matrix(0.6364 -0.7714 0.7714 0.6364 -102.3422 59.826)" opacity="0.4" fill="#F927FF" enable-background="new    " width="464.873" height="18.748"/>
			
				<rect x="-92.442" y="114.347" transform="matrix(-0.3729 0.9279 -0.9279 -0.3729 306.9905 39.9621)" opacity="0.4" fill="#00FFF8" enable-background="new    " width="464.866" height="18.75"/>
			<polygon opacity="0.4" fill="#00FFF8" enable-background="new    " points="325.62,301.675 113.134,-111.776 129.812,-120.347 
				342.292,293.105 			"/>
			<polygon opacity="0.4" fill="#00FFF8" enable-background="new    " points="418.045,355.531 -27.687,223.575 -22.363,205.596 
				423.37,337.557 			"/>
			
				<rect x="-57.333" y="200.936" transform="matrix(0.9356 -0.353 0.353 0.9356 -62.9686 75.3478)" opacity="0.4" fill="#00FFF8" enable-background="new    " width="464.848" height="18.747"/>
			
				<rect x="-54.38" y="67.281" transform="matrix(0.8474 -0.5309 0.5309 0.8474 -13.5325 106.2203)" opacity="0.4" fill="#F927FF" enable-background="new    " width="464.844" height="18.747"/>
			
				<rect x="-15.654" y="31.264" transform="matrix(-0.93 0.3676 -0.3676 -0.93 433.3153 -1.2516)" opacity="0.4" fill="#00FFF8" enable-background="new    " width="464.861" height="18.752"/>
			
				<rect x="-79.69" y="175.695" transform="matrix(0.9556 -0.2948 0.2948 0.9556 -47.7691 53.2524)" opacity="0.4" fill="#F927FF" enable-background="new    " width="464.875" height="18.751"/>
			
				<rect x="-97.585" y="216.507" transform="matrix(0.882 0.4713 -0.4713 0.882 122.3714 -36.8934)" opacity="0.4" fill="#00FFF8" enable-background="new    " width="464.865" height="18.752"/>
			
				<rect x="-77.426" y="127.131" transform="matrix(-0.9959 -0.0902 0.0902 -0.9959 297.0492 286.4349)" opacity="0.4" fill="#F927FF" enable-background="new    " width="464.846" height="18.747"/>
			
				<rect x="-28.086" y="77.05" transform="matrix(0.497 0.8678 -0.8678 0.497 177.7903 -133.8549)" opacity="0.4" fill="#00FF2A" enable-background="new    " width="464.875" height="18.752"/>
			
				<rect x="19.119" y="160.462" transform="matrix(0.881 0.4732 -0.4732 0.881 110.3082 -98.8151)" opacity="0.4" fill="#00FF2A" enable-background="new    " width="464.873" height="18.752"/>
			
				<rect x="-158.092" y="194.016" transform="matrix(-0.9798 0.2 -0.2 -0.9798 187.8536 387.8082)" opacity="0.4" fill="#00FFF8" enable-background="new    " width="464.861" height="18.753"/>
			<polygon opacity="0.4" fill="#00FFF8" enable-background="new    " points="-9.053,102.69 437.004,233.559 431.72,251.555 
				-14.328,120.68 			"/>
			
				<rect x="-179.7" y="100.051" transform="matrix(-0.7971 0.6038 -0.6038 -0.7971 160.8198 164.8166)" opacity="0.4" fill="#00FFF8" enable-background="new    " width="464.844" height="18.749"/>
			<polygon opacity="0.4" fill="#00FF2A" enable-background="new    " points="372.207,213.76 -90.393,259.459 -92.235,240.795 
				370.369,195.098 			"/>
			
				<rect x="22.124" y="64.067" transform="matrix(0.5417 0.8406 -0.8406 0.5417 178.4005 -180.3177)" opacity="0.4" fill="#F927FF" enable-background="new    " width="464.869" height="18.748"/>
			<polygon opacity="0.4" fill="#00FFF8" enable-background="new    " points="425.785,234.186 -25.63,345.148 -30.104,326.941 
				421.314,215.979 			"/>
			<polygon opacity="0.4" fill="#00FFF8" enable-background="new    " points="-41.221,156.521 417.301,233.027 414.212,251.521 
				-44.304,175.014 			"/>
			
				<rect x="-190.474" y="171.319" transform="matrix(-0.5495 0.8355 -0.8355 -0.5495 215.9787 244.9329)" opacity="0.4" fill="#00FF2A" enable-background="new    " width="464.858" height="18.751"/>
		</g>
	</g>
</g>
</svg>
