<?xml version="1.0" encoding="utf-8"?>
<!-- Generator: Adobe Illustrator 16.0.4, SVG Export Plug-In . SVG Version: 6.00 Build 0)  -->
<!DOCTYPE svg PUBLIC "-//W3C//DTD SVG 1.1//EN" "http://www.w3.org/Graphics/SVG/1.1/DTD/svg11.dtd">
<svg version="1.1" id="Layer_4" xmlns="http://www.w3.org/2000/svg" xmlns:xlink="http://www.w3.org/1999/xlink" x="0px" y="0px"
	 width="200px" height="250px" viewBox="0 0 200 250" enable-background="new 0 0 200 250" xml:space="preserve">
<g>
	<path fill="#222222" d="M74.339,132.759c-4.355-0.595-13.14-1.348-17.535-1.276c-11.011,0.178-18.656,13.818-14.364,23.545
		c3.329,7.543,16.132,12.267,24.856,9.081c3.184-1.163,6.203-2.811,9.429-3.816c5.507-1.715,8.83-5.188,8.802-10.979
		C85.491,141.612,80.346,133.578,74.339,132.759z"/>
	<path fill="#222222" d="M102.763,161.791c-0.576-0.994-3.095-1.796-4.225-1.371c-4.275,1.601-12.184,17.169-10.374,21.499
		c1.001,2.394,4.038,6.12,6.987,5.511c2.078-0.429,2.743-3.579,3.052-5.538c0.822-5.206,1.052-10.507,1.517-15.771
		c0.143,0.035,0.285,0.073,0.428,0.109c0.475,5.838,0.737,11.707,1.579,17.491c0.2,1.37,2.344,3.479,3.596,3.48
		c3.696,0.004,7.716-4.832,6.392-8.091C109.274,173.109,106.019,167.415,102.763,161.791z"/>
	<path fill="#222222" d="M0,0v250h200V0H0z M174.721,120.943c-1.299,9.278-7.6,29.111-7.6,29.111c-0.717-8.082-0.408-15.038-1.647-20.275
		c-0.094-0.309-1.87-2.461-3.999-4.873c-2.008-2.281-4.379-4.839-4.379-4.839l-0.285-3.331c0,0,1.004-8.01,0.856-7.998
		c-0.037,0.275-1.809,7.331-1.809,7.331l-0.002,4.517l4.382,5.099l2.476,5.142l1.373,6.668c0,0-0.273,8.078,0.149,11.612l1.5,8.907
		c10.156,7.763,3.793,16.059,0.489,22.833c-4.586,9.406-4.394,9.879-14.643,7.612c-1.179-0.26-2.818,0.703-3.992,1.481
		c-2.518,1.669-4.755,3.773-7.319,5.357c-3.335,2.061-3.997,4.316-3.143,8.34c0.697,3.289-0.555,7.226-1.722,10.606
		c-0.691,2.003-6.747,5.237-9.178,5.271l-0.665-3.476l-1.109-0.221l-0.222,4.435c-1.729,1.023-4.958,1.536-6.653,0.963
		c0,0-0.394-3.655-0.666-5.177c-0.612,0.661-1.774,1.7-1.774,1.7l-0.369,5.078c-0.255,0.203-3.548,1.844-5.384,0.464
		c-0.756-0.569-0.25-4.268-0.25-4.268l-0.893,0.554l-0.588,3.999c-2.165,1.378-6.29,1.874-7.926,0.714
		c-0.61-0.433-0.929-5.267-0.929-5.267l-0.856-0.035c0,0-0.917,5.843-2.653,5.944c-1.036,0.061-4.408,0.447-6.101-1.342
		l-0.665-3.919l-1.183-0.369v3.524c-1.661,1.254-4.725,0.424-5.438-0.541c-0.562-0.76-0.403-4.565-0.403-4.565
		s-1.052-0.827-1.592-1.397c-0.433,1.337-0.958,4.887-0.958,4.887c-1.501,1.547-4.164-0.219-6.176-1.475
		c-0.278-0.174-0.441-3.664-0.441-3.664l-0.902-0.365l-1.242,3.375c-3.026,0.78-4.786-2.629-6.435-5.792
		c-1.992-3.818-2.814-7.347-0.972-11.337c0.381-0.824,0.809-1.829,0.667-2.657c-0.516-3.01-13.828-10.988-16.815-10.24
		c-4.606,1.152-8.627,0.879-10.938-4.183c-1.792-3.923-3.824-7.735-5.702-11.62c-2.416-4.999-6.226-7.606-0.943-12.278
		c2.039-1.803,3.2-8.117,3.619-11.615c0.423-3.536,0.149-11.613,0.149-11.613l1.373-6.667l2.476-5.142l4.382-5.1l-0.003-4.517
		c0,0-1.771-7.057-1.809-7.331c-0.147-0.012,0.857,7.997,0.857,7.997l-0.286,3.333c0,0-2.37,2.557-4.38,4.837
		c-2.128,2.413-3.903,4.565-3.999,4.874c-1.238,5.237-0.929,12.194-1.647,20.275c-2.178-7.644-3.817-13.231-4.369-20.054
		c-1.48-18.311-3.053-36.679,0.652-55.028c2.249-11.138,6.273-20.355,16.341-27.076c14.864-9.923,29.742-19.181,47.78-22.19
		c12.571-2.097,24.936-0.799,36,4.719c13.255,6.611,26.276,14.237,37.889,23.35c5.072,3.979,7.578,12.468,9.179,19.387
		C176.868,89.031,176.944,105.043,174.721,120.943z"/>
	<path fill="#222222" d="M148.836,133.793c-5.761-1.552-12.057-1.323-18.127-1.485c-9.89-0.263-14.396,5.484-16.016,14.626
		c-0.939,5.302,0.278,9.558,5.121,11.846c5.053,2.389,10.363,4.374,15.744,5.89c11.19,3.148,22.031-5.048,22.029-17.28
		C158.65,141.096,155.605,135.617,148.836,133.793z"/>
</g>
</svg>
