<?xml version="1.0" encoding="utf-8"?>
<!-- Generator: Adobe Illustrator 16.0.4, SVG Export Plug-In . SVG Version: 6.00 Build 0)  -->
<!DOCTYPE svg PUBLIC "-//W3C//DTD SVG 1.1//EN" "http://www.w3.org/Graphics/SVG/1.1/DTD/svg11.dtd">
<svg version="1.1" id="Layer_4" xmlns="http://www.w3.org/2000/svg" xmlns:xlink="http://www.w3.org/1999/xlink" x="0px" y="0px"
	 width="200px" height="250px" viewBox="0 0 200 250" enable-background="new 0 0 200 250" xml:space="preserve">
<g>
	<g>
		<path fill="#FFFFFF" stroke="#000000" stroke-miterlimit="10" d="M157.096,120.067c0,0,2.371,2.558,4.379,4.839
			c2.129,2.412,3.905,4.564,3.999,4.873c1.239,5.237,0.931,12.193,1.647,20.275c0,0,6.301-19.833,7.6-29.111
			c2.224-15.9,2.147-31.913-1.463-47.539c-1.601-6.919-4.106-15.408-9.179-19.387c-11.612-9.112-24.634-16.738-37.889-23.35
			c-11.064-5.518-23.429-6.816-36-4.719c-18.038,3.01-32.916,12.268-47.78,22.19C32.343,54.86,28.319,64.077,26.07,75.215
			c-3.705,18.349-2.132,36.717-0.652,55.028c0.551,6.822,2.191,12.41,4.369,20.054c0.718-8.081,0.409-15.038,1.647-20.275
			c0.096-0.309,1.871-2.461,3.999-4.874c2.01-2.28,4.38-4.837,4.38-4.837l0.286-3.333c0,0-1.004-8.009-0.857-7.997
			c0.037,0.274,1.809,7.331,1.809,7.331l0.003,4.517l-4.382,5.1l-2.476,5.142l-1.373,6.667c0,0,0.274,8.077-0.149,11.613
			c-0.418,3.498-1.58,9.812-3.619,11.615c-5.283,4.672-1.473,7.279,0.943,12.278c1.877,3.885,3.91,7.697,5.702,11.62
			c2.311,5.062,6.332,5.335,10.938,4.183c2.988-0.748,16.299,7.23,16.815,10.24c0.142,0.828-0.286,1.833-0.667,2.657
			c-1.842,3.99-1.02,7.519,0.972,11.337c1.649,3.163,3.408,6.572,6.435,5.792l1.242-3.375l0.902,0.365c0,0,0.163,3.49,0.441,3.664
			c2.012,1.256,4.675,3.021,6.176,1.475c0,0,0.525-3.55,0.958-4.887c0.541,0.57,1.592,1.397,1.592,1.397s-0.159,3.806,0.403,4.565
			c0.713,0.965,3.777,1.795,5.438,0.541v-3.524l1.183,0.369l0.665,3.919c1.692,1.789,5.065,1.402,6.101,1.342
			c1.735-0.102,2.653-5.944,2.653-5.944l0.856,0.035c0,0,0.319,4.834,0.929,5.267c1.636,1.16,5.761,0.664,7.926-0.714l0.588-3.999
			l0.893-0.554c0,0-0.506,3.698,0.25,4.268c1.836,1.38,5.129-0.261,5.384-0.464l0.369-5.078c0,0,1.162-1.039,1.774-1.7
			c0.272,1.521,0.666,5.177,0.666,5.177c1.695,0.573,4.924,0.061,6.653-0.963l0.222-4.435l1.109,0.221l0.665,3.476
			c2.431-0.034,8.486-3.269,9.178-5.271c1.167-3.381,2.419-7.317,1.722-10.606c-0.854-4.023-0.192-6.279,3.143-8.34
			c2.564-1.584,4.802-3.688,7.319-5.357c1.174-0.778,2.813-1.741,3.992-1.481c10.249,2.267,10.057,1.794,14.643-7.612
			c3.304-6.774,9.667-15.07-0.489-22.833l-1.5-8.907c-0.423-3.534-0.149-11.612-0.149-11.612l-1.373-6.668l-2.476-5.142
			l-4.382-5.099l0.002-4.517c0,0,1.771-7.056,1.809-7.331c0.147-0.012-0.856,7.998-0.856,7.998L157.096,120.067z M76.726,160.292
			c-3.226,1.006-6.245,2.653-9.429,3.816c-8.724,3.186-21.528-1.538-24.856-9.081c-4.292-9.727,3.353-23.367,14.364-23.545
			c4.395-0.071,13.18,0.682,17.535,1.276c6.006,0.819,11.151,8.854,11.188,16.554C85.556,155.104,82.233,158.577,76.726,160.292z
			 M105.323,187.202c-1.252-0.002-3.396-2.11-3.596-3.48c-0.842-5.784-1.104-11.653-1.579-17.491
			c-0.143-0.036-0.285-0.074-0.428-0.109c-0.465,5.264-0.694,10.564-1.517,15.771c-0.309,1.959-0.974,5.109-3.052,5.538
			c-2.949,0.609-5.986-3.117-6.987-5.511c-1.811-4.33,6.098-19.898,10.374-21.499c1.129-0.425,3.649,0.377,4.225,1.371
			c3.256,5.624,6.512,11.318,8.952,17.32C113.039,182.37,109.019,187.206,105.323,187.202z M157.588,147.389
			c0.002,12.232-10.839,20.429-22.029,17.28c-5.381-1.516-10.691-3.501-15.744-5.89c-4.843-2.288-6.061-6.544-5.121-11.846
			c1.62-9.142,6.126-14.889,16.016-14.626c6.07,0.162,12.366-0.066,18.127,1.485C155.605,135.617,158.65,141.096,157.588,147.389z"
			/>
	</g>
</g>
</svg>
