<?xml version="1.0" encoding="utf-8"?>
<!-- Generator: Adobe Illustrator 16.0.4, SVG Export Plug-In . SVG Version: 6.00 Build 0)  -->
<!DOCTYPE svg PUBLIC "-//W3C//DTD SVG 1.1//EN" "http://www.w3.org/Graphics/SVG/1.1/DTD/svg11.dtd">
<svg version="1.1" id="Layer_1" xmlns="http://www.w3.org/2000/svg" xmlns:xlink="http://www.w3.org/1999/xlink" x="0px" y="0px"
	 width="600px" height="260px" viewBox="0 0 600 260" enable-background="new 0 0 600 260" xml:space="preserve">
<g id="Layer_4">
	<g>
		<g>
			<g>
				<g>
					<defs>
						<polygon id="SVGID_1_" points="296.542,-43.545 16.991,84.98 299.999,270.514 583.009,84.98 						"/>
					</defs>
					<clipPath id="SVGID_2_">
						<use xlink:href="#SVGID_1_"  overflow="visible"/>
					</clipPath>
					
						<line clip-path="url(#SVGID_2_)" fill="none" stroke="#F30BFF" stroke-width="8" stroke-miterlimit="10" x1="676.248" y1="190.221" x2="-36.62" y2="190.221"/>
				</g>
			</g>
		</g>
		<g>
			<g>
				<g>
					<defs>
						<polygon id="SVGID_3_" points="296.542,-43.545 16.991,84.98 299.999,270.514 583.009,84.98 						"/>
					</defs>
					<clipPath id="SVGID_4_">
						<use xlink:href="#SVGID_3_"  overflow="visible"/>
					</clipPath>
					
						<line clip-path="url(#SVGID_4_)" fill="none" stroke="#F30BFF" stroke-width="8" stroke-miterlimit="10" x1="676.251" y1="88.435" x2="-36.62" y2="88.434"/>
				</g>
			</g>
		</g>
		<g>
			<g>
				<g>
					<defs>
						<polygon id="SVGID_5_" points="296.542,-43.545 16.991,84.98 299.999,270.514 583.009,84.98 						"/>
					</defs>
					<clipPath id="SVGID_6_">
						<use xlink:href="#SVGID_5_"  overflow="visible"/>
					</clipPath>
					
						<line clip-path="url(#SVGID_6_)" fill="none" stroke="#F30BFF" stroke-width="8" stroke-miterlimit="10" x1="676.248" y1="54.504" x2="-36.62" y2="54.504"/>
				</g>
			</g>
		</g>
		<g>
			<g>
				<g>
					<defs>
						<polygon id="SVGID_7_" points="296.542,-43.545 16.991,84.98 299.999,270.514 583.009,84.98 						"/>
					</defs>
					<clipPath id="SVGID_8_">
						<use xlink:href="#SVGID_7_"  overflow="visible"/>
					</clipPath>
					
						<line clip-path="url(#SVGID_8_)" fill="none" stroke="#F30BFF" stroke-width="8" stroke-miterlimit="10" x1="-37.361" y1="156.292" x2="237.52" y2="156.292"/>
				</g>
			</g>
		</g>
		<g>
			<g>
				<g>
					<defs>
						<polygon id="SVGID_9_" points="296.542,-43.545 16.991,84.98 299.999,270.514 583.009,84.98 						"/>
					</defs>
					<clipPath id="SVGID_10_">
						<use xlink:href="#SVGID_9_"  overflow="visible"/>
					</clipPath>
					
						<line clip-path="url(#SVGID_10_)" fill="none" stroke="#F30BFF" stroke-width="8" stroke-miterlimit="10" x1="-37.362" y1="122.361" x2="682.625" y2="122.364"/>
				</g>
			</g>
		</g>
		<g>
			<g>
				<g>
					<defs>
						<polygon id="SVGID_11_" points="296.542,-43.545 16.991,84.98 299.999,270.514 583.009,84.98 						"/>
					</defs>
					<clipPath id="SVGID_12_">
						<use xlink:href="#SVGID_11_"  overflow="visible"/>
					</clipPath>
					
						<line clip-path="url(#SVGID_12_)" fill="none" stroke="#F30BFF" stroke-width="8" stroke-miterlimit="10" x1="550.572" y1="156.292" x2="360.02" y2="156.292"/>
				</g>
			</g>
		</g>
	</g>
</g>
<g id="Layer_2">
	<g>
		<path fill="#03FFFF" d="M294.199,232.598c-2.647,0-4.852-0.58-6.579-1.729c-0.604,0.12-1.233,0.183-1.882,0.183
			c-1.769,0-4.148-0.513-5.938-1.86c-0.565,0.143-1.154,0.215-1.758,0.215c-2.801,0-5.283-1.551-7.099-2.688
			c-0.346,0.046-0.692,0.065-1.036,0.065c-5.532,0-8.213-5.145-9.987-8.547c-1.88-3.604-4.003-9.025-1.306-15.336
			c-2.455-2.168-8.457-5.697-10.819-6.258c-1.657,0.377-3.144,0.562-4.529,0.562c-5.262,0-9.254-2.648-11.544-7.666
			c-1.049-2.3-2.226-4.641-3.363-6.898c-0.772-1.537-1.544-3.074-2.292-4.621c-0.418-0.865-0.931-1.711-1.426-2.529
			c-1.944-3.209-5.552-9.162,1.534-15.547c0.166-0.254,0.375-0.725,0.6-1.381l-1.433-5.027c-2.102-7.371-3.762-13.193-4.335-20.289
			l-0.073-0.9c-1.463-18.082-2.976-36.78,0.808-55.518c2.067-10.242,5.878-21.844,18.465-30.247
			c15.435-10.304,30.854-19.813,49.733-22.963c4.044-0.675,8.074-1.017,11.979-1.017c9.729,0,18.836,2.083,27.076,6.193
			c15.325,7.645,27.998,15.459,38.743,23.891c6.312,4.953,9.175,14.462,10.964,22.194c3.49,15.11,4.01,31.717,1.543,49.357
			c-1.343,9.587-7.523,29.106-7.785,29.933l-1.275,4.015c9.809,9.043,4.354,19.366,1.348,25.059
			c-0.435,0.818-0.857,1.619-1.236,2.398l-0.474,0.974c-2.985,6.145-5.144,10.581-11.735,10.581c-1.996,0-4.272-0.437-7.188-1.071
			c-0.211,0.108-0.521,0.293-0.968,0.588c-0.988,0.655-1.977,1.429-3.021,2.244c-1.381,1.079-2.81,2.194-4.436,3.199
			c-1.223,0.755-1.35,0.834-0.88,3.047c0.946,4.467-0.412,9.008-1.886,13.276c-1.521,4.399-9.271,8.172-13.217,8.601l-0.14,0.081
			c-1.979,1.173-4.83,1.898-7.44,1.898c-0.361,0-0.714-0.017-1.056-0.043l-0.396,0.313c-1.096,0.873-3.879,2.103-6.64,2.103
			c-0.795,0-1.562-0.103-2.282-0.298c-1.92,0.888-4.246,1.396-6.494,1.396c-1.612,0-3.037-0.266-4.252-0.793
			c-0.79,0.465-1.669,0.726-2.635,0.779l-0.207,0.017C295.508,232.557,294.896,232.598,294.199,232.598z M306.735,181.436
			c0.086,0.832,0.181,1.66,0.282,2.485c0.208-0.245,0.385-0.504,0.475-0.728C307.25,182.607,306.996,182.021,306.735,181.436z
			 M293.463,182.833c0.112,0.224,0.251,0.453,0.403,0.679c0.239-1.548,0.425-3.103,0.581-4.679
			C293.823,180.499,293.437,181.95,293.463,182.833z M330.638,139.896c-5.152,0-8.901,1.787-10.447,10.506
			c-0.81,4.557,0.711,5.688,2.334,6.453c4.804,2.271,9.837,4.152,14.964,5.6c1.151,0.322,2.321,0.488,3.479,0.488
			c3.226,0,6.25-1.271,8.521-3.57c2.371-2.402,3.677-5.737,3.677-9.387v-0.42l0.068-0.412c0.396-2.342,0.256-6.486-5.122-7.938
			c-4.118-1.107-8.724-1.18-13.598-1.252c-1.126-0.018-2.249-0.031-3.362-0.062C330.976,139.896,330.806,139.896,330.638,139.896z
			 M257.458,139.079c-3.233,0.053-6.307,1.987-8.435,5.31c-2.296,3.588-2.86,7.989-1.436,11.219
			c1.701,3.854,8.194,7.106,14.181,7.106c1.629,0,3.104-0.235,4.386-0.704c1.221-0.445,2.454-0.99,3.759-1.564
			c1.865-0.821,3.793-1.672,5.896-2.327c4.668-1.453,5.301-3.83,5.29-6.185c-0.027-5.658-3.861-11.213-6.864-11.623
			c-4.271-0.582-12.126-1.233-16.249-1.233L257.458,139.079z"/>
		<path fill="#222222" d="M301.918,27.598c8.67,0,17.078,1.794,24.845,5.667c13.255,6.611,26.276,14.237,37.891,23.35
			c5.07,3.979,7.578,12.468,9.179,19.387c3.61,15.626,3.688,31.638,1.463,47.539c-1.299,9.277-7.6,29.109-7.6,29.109
			c-0.719-8.082-0.408-15.037-1.646-20.273c-0.094-0.311-1.87-2.461-4-4.873c-2.008-2.281-4.379-4.84-4.379-4.84l-0.285-3.33
			c0,0,1.004-8,0.857-7.998l0,0c-0.037,0.274-1.812,7.33-1.812,7.33l-0.002,4.518l4.382,5.1l2.479,5.141l1.373,6.669
			c0,0-0.273,8.077,0.146,11.612l1.5,8.905c10.156,7.765,3.793,16.06,0.488,22.834c-3.178,6.519-4.061,8.746-7.713,8.746
			c-1.619,0-3.781-0.438-6.93-1.135c-0.136-0.029-0.273-0.043-0.418-0.043c-1.127,0-2.533,0.836-3.574,1.522
			c-2.52,1.67-4.754,3.772-7.318,5.356c-3.336,2.062-3.997,4.315-3.143,8.34c0.694,3.289-0.558,7.228-1.725,10.604
			c-0.689,2.004-6.747,5.238-9.178,5.271l-0.665-3.476l-1.107-0.222l-0.224,4.436c-1.233,0.73-3.234,1.202-4.896,1.202
			c-0.664,0-1.271-0.075-1.757-0.239c0,0-0.396-3.652-0.666-5.177c-0.612,0.661-1.774,1.7-1.774,1.7l-0.369,5.078
			c-0.18,0.145-1.889,1.01-3.521,1.01c-0.67,0-1.326-0.146-1.861-0.547c-0.756-0.568-0.25-4.268-0.25-4.268l-0.893,0.555
			l-0.59,3.998c-1.33,0.849-3.402,1.361-5.186,1.361c-1.111,0-2.111-0.201-2.741-0.646c-0.609-0.434-0.929-5.268-0.929-5.268
			l-0.856-0.035c0,0-0.917,5.844-2.652,5.943c-0.346,0.021-0.95,0.075-1.666,0.075c-1.432,0-3.307-0.226-4.435-1.418l-0.665-3.919
			l-1.183-0.369v3.523c-0.602,0.453-1.387,0.635-2.179,0.635c-1.394,0-2.805-0.562-3.26-1.176c-0.562-0.762-0.402-4.564-0.402-4.564
			s-1.052-0.826-1.593-1.396c-0.433,1.337-0.958,4.888-0.958,4.888c-0.417,0.433-0.925,0.604-1.483,0.604
			c-1.448,0-3.24-1.172-4.693-2.078c-0.278-0.174-0.441-3.664-0.441-3.664l-0.902-0.364l-1.242,3.375
			c-0.297,0.076-0.582,0.112-0.856,0.112c-2.514,0-4.091-3.053-5.578-5.905c-1.992-3.817-2.814-7.347-0.972-11.336
			c0.381-0.824,0.809-1.83,0.667-2.658c-0.493-2.875-12.671-10.289-16.358-10.289c-0.171,0-0.324,0.017-0.457,0.05
			c-1.376,0.346-2.701,0.562-3.943,0.562c-2.914,0-5.375-1.195-6.996-4.744c-1.792-3.922-3.824-7.734-5.702-11.619
			c-2.416-5-6.226-7.605-0.943-12.277c2.039-1.805,3.2-8.117,3.619-11.615c0.423-3.535,0.149-11.611,0.149-11.611l1.373-6.668
			l2.476-5.142l4.382-5.101l-0.003-4.517c0,0-1.771-7.057-1.809-7.331l0,0c-0.146,0,0.857,7.997,0.857,7.997l-0.286,3.333
			c0,0-2.37,2.557-4.38,4.838c-2.128,2.412-3.903,4.563-3.999,4.873c-1.238,5.235-0.929,12.192-1.647,20.274
			c-2.178-7.646-3.817-13.229-4.369-20.056c-1.48-18.311-3.053-36.677,0.652-55.026c2.249-11.138,6.273-20.355,16.341-27.076
			c14.864-9.923,29.742-19.181,47.78-22.19C294.51,27.92,298.237,27.598,301.918,27.598 M261.769,167.714
			c2.133,0,4.213-0.319,6.101-1.01c3.184-1.162,6.203-2.812,9.429-3.815c5.507-1.716,8.829-5.188,8.802-10.979
			c-0.037-7.699-5.183-15.733-11.188-16.555c-4.162-0.566-12.369-1.279-16.924-1.279c-0.211,0-0.416,0.002-0.611,0.004
			c-11.011,0.178-18.656,13.818-14.364,23.545C245.622,163.534,254.046,167.714,261.769,167.714 M340.963,167.941
			c9.285,0,17.199-7.506,17.197-17.957c1.062-6.293-1.982-11.771-8.752-13.596c-5.762-1.554-12.06-1.322-18.127-1.484
			c-0.22-0.006-0.435-0.01-0.646-0.01c-9.44,0-13.787,5.692-15.372,14.635c-0.938,5.304,0.278,9.56,5.121,11.847
			c5.053,2.39,10.362,4.375,15.743,5.892C337.761,167.725,339.381,167.941,340.963,167.941 M295.07,190.093
			c0.218,0,0.436-0.021,0.653-0.065c2.078-0.43,2.743-3.577,3.052-5.536c0.822-5.207,1.052-10.509,1.517-15.771
			c0.144,0.034,0.286,0.071,0.429,0.108c0.475,5.838,0.735,11.707,1.579,17.489c0.199,1.369,2.345,3.479,3.597,3.479
			c0.002,0,0.002,0,0.004,0c3.693,0,7.712-4.834,6.39-8.092c-2.44-6.002-5.695-11.694-8.953-17.319
			c-0.467-0.808-2.215-1.486-3.461-1.486c-0.288,0-0.55,0.035-0.763,0.115c-4.275,1.603-12.184,17.17-10.373,21.5
			C289.665,186.732,292.337,190.093,295.07,190.093 M301.918,17.598L301.918,17.598c-4.178,0-8.485,0.365-12.801,1.084
			c-19.859,3.313-35.781,13.119-51.687,23.737c-14.181,9.469-18.452,22.831-20.59,33.414c-3.923,19.429-2.381,38.483-0.891,56.911
			l0.073,0.9c0.613,7.588,2.333,13.621,4.51,21.258l0.208,0.729l0.588,2.065c-3.14,3.395-4.598,7.188-4.337,11.307
			c0.248,3.916,2.053,6.896,3.371,9.07c0.456,0.752,0.886,1.463,1.201,2.113c0.77,1.596,1.562,3.168,2.326,4.688
			c1.168,2.324,2.271,4.521,3.283,6.731c1.426,3.123,3.453,5.629,5.932,7.416l3.04,1.737c2.162,0.943,4.559,1.439,7.12,1.439
			c1.322,0,2.694-0.127,4.153-0.388c1.45,0.617,3.59,1.824,5.363,2.984c-1.605,7.479,1.527,13.485,2.681,15.698l0.024,0.045
			c1.881,3.606,5.772,11.074,14.149,11.231c2.123,1.252,4.961,2.623,8.405,2.623c0.229,0,0.456-0.009,0.683-0.021
			c2.33,1.188,4.892,1.666,7.014,1.666c0.298,0,0.594-0.011,0.888-0.024c1.939,0.918,4.426,1.571,7.573,1.571
			c0.908,0,1.654-0.053,2.101-0.083l0.15-0.011c0.751-0.045,1.619-0.17,2.54-0.446c1.262,0.312,2.615,0.471,4.056,0.471
			c2.351,0,4.783-0.437,6.983-1.213c0.587,0.073,1.185,0.11,1.792,0.11c3.258,0,6.463-1.123,8.566-2.379
			c3.062-0.076,6.256-0.873,8.781-2.188c5.523-1.058,14.062-5.379,16.263-11.756c1.516-4.39,3.034-9.463,2.266-14.752
			c1.204-0.835,2.293-1.688,3.289-2.466c0.66-0.517,1.297-1.015,1.896-1.451c2.301,0.462,4.273,0.755,6.203,0.755
			c1.051,0,2.029-0.084,2.941-0.24l0.527-0.098c7.141-1.486,10.104-7.591,12.763-13.058l0.47-0.968
			c0.332-0.682,0.734-1.444,1.164-2.256c1.963-3.717,4.407-8.344,4.812-13.871c0.297-4.035-0.461-9.522-4.92-14.821l0.381-1.197
			c0.672-2.11,6.599-20.922,7.975-30.752c2.553-18.251,2.006-35.468-1.623-51.176c-1.976-8.534-5.205-19.086-12.749-25.004
			c-11.016-8.642-23.967-16.634-39.6-24.431C322.287,19.858,312.427,17.598,301.918,17.598L301.918,17.598L301.918,17.598z
			 M261.769,157.714c-4.753,0-8.981-2.711-9.606-4.127c-0.743-1.685-0.302-4.356,1.072-6.504c0.446-0.694,2.074-2.97,4.304-3.006
			c0.144-0.002,0.294-0.004,0.449-0.004c3.758,0,11.124,0.604,15.23,1.145c1.055,0.716,2.868,3.666,2.882,6.738
			c0.002,0.31-0.025,0.498-0.045,0.596c-0.19,0.152-0.722,0.476-1.73,0.789c-2.376,0.74-4.529,1.689-6.428,2.527
			c-1.229,0.541-2.39,1.053-3.459,1.442C263.72,157.575,262.795,157.714,261.769,157.714L261.769,157.714z M324.975,152.482
			c0.011-0.278,0.044-0.676,0.14-1.207c1.132-6.381,2.974-6.381,5.523-6.381c0.125,0,0.251,0.002,0.379,0.006
			c1.135,0.029,2.274,0.048,3.421,0.063c4.555,0.068,8.854,0.134,12.37,1.08c1.437,0.388,1.761,0.692,1.491,2.272l-0.139,0.826v0.84
			c0,2.98-1.217,4.841-2.236,5.875c-1.323,1.343-3.086,2.08-4.961,2.08c-0.695,0-1.41-0.103-2.125-0.303
			C334.094,156.303,329.431,154.568,324.975,152.482L324.975,152.482z"/>
	</g>
</g>
</svg>
